<svg id="Livello_1" data-name="Livello 1" xmlns="http://www.w3.org/2000/svg" viewBox="0 0 382.32 149.37"><defs><style>.cls-1{fill:#808285;}.cls-2{fill:#231f20;}.cls-3{fill:#00b8a5;}.cls-4{fill:#097875;}</style></defs><title>logo_SmartShaped2019</title><path class="cls-1" d="M83.59,126.19v-1h6c.58,0,.86-.21.86-.64v-.86c0-.43-.28-.64-.86-.64h-4a3.53,3.53,0,0,1-1-.12,1.69,1.69,0,0,1-.67-.34,1.27,1.27,0,0,1-.38-.52,1.81,1.81,0,0,1-.12-.67V121a1.87,1.87,0,0,1,.12-.68,1.27,1.27,0,0,1,.38-.52,1.83,1.83,0,0,1,.67-.34,3.53,3.53,0,0,1,1-.12h5.83v1H85.52c-.57,0-.86.21-.86.64v.42c0,.42.29.63.86.63h4a3.6,3.6,0,0,1,1,.12,1.92,1.92,0,0,1,.67.34,1.37,1.37,0,0,1,.38.52,1.83,1.83,0,0,1,.11.68v.84a1.87,1.87,0,0,1-.11.68,1.37,1.37,0,0,1-.38.52,1.92,1.92,0,0,1-.67.34,3.6,3.6,0,0,1-1,.12Z"/><path class="cls-1" d="M114.47,126.19a3.65,3.65,0,0,1-1-.12,2,2,0,0,1-.67-.34,1.35,1.35,0,0,1-.37-.52,1.87,1.87,0,0,1-.12-.68V121a1.87,1.87,0,0,1,.12-.68,1.35,1.35,0,0,1,.37-.52,2,2,0,0,1,.67-.34,3.65,3.65,0,0,1,1-.12H119a3.65,3.65,0,0,1,1,.12,2,2,0,0,1,.67.34,1.35,1.35,0,0,1,.37.52,1.87,1.87,0,0,1,.12.68v3.54a1.87,1.87,0,0,1-.12.68,1.35,1.35,0,0,1-.37.52,2,2,0,0,1-.67.34,3.65,3.65,0,0,1-1,.12Zm5.41-5.21c0-.43-.29-.64-.86-.64h-4.55c-.57,0-.86.21-.86.64v3.56c0,.43.29.64.86.64H119c.57,0,.86-.21.86-.64Z"/><path class="cls-1" d="M143.26,123.36v2.83H142v-6.86H149v1h-5.78v2h5.39v1Z"/><path class="cls-1" d="M172.5,126.19v-5.85h-3.61v-1h8.42v1H173.8v5.85Z"/><path class="cls-1" d="M206,126.19l-2.38-5.26-2.44,5.26h-.95l-3.17-6.86h1.26l2.39,5.26,2.42-5.26h1l2.38,5.26,2.42-5.26h1.26L207,126.19Z"/><path class="cls-1" d="M238.36,126.19l-3.55-5.53-3.61,5.53h-1.44l4.57-6.86h.95l4.55,6.86Z"/><path class="cls-1" d="M266.57,126.19,265,123.13h-3.63v3.06H260v-6.86h5.85a3.6,3.6,0,0,1,1,.12,1.92,1.92,0,0,1,.67.34,1.37,1.37,0,0,1,.38.52,2.11,2.11,0,0,1,.11.68v.48a1.62,1.62,0,0,1-.39,1.11,1.92,1.92,0,0,1-1.31.53l1.62,3.08Zm.16-5.21c0-.43-.28-.64-.86-.64h-4.55v1.78h4.55c.58,0,.86-.21.86-.64Z"/><path class="cls-1" d="M288.64,126.19v-6.86h7.08v1h-5.78v1.72h5.48v1h-5.48v2.11h5.78v1Z"/><path class="cls-2" d="M78.13,109.59a1,1,0,0,1-.24-.64,1,1,0,0,1,.35-.76,1.2,1.2,0,0,1,.84-.31,1.17,1.17,0,0,1,1,.49,3.77,3.77,0,0,0,.42.49,4.72,4.72,0,0,0,3.22,1.51,5,5,0,0,0,3.44-1,4,4,0,0,0,1.66-2.91,3.85,3.85,0,0,0-1.1-3.12,4.74,4.74,0,0,0-3.23-1.49,6,6,0,0,1-4-1.87,4.85,4.85,0,0,1-1.39-3.9,5,5,0,0,1,2.07-3.64A6.1,6.1,0,0,1,85,91.13a6.18,6.18,0,0,1,4.5,1.92,6.43,6.43,0,0,1,.57.72,1,1,0,0,1,.18.57,1,1,0,0,1-.35.76,1.19,1.19,0,0,1-.83.31,1,1,0,0,1-.83-.32l-.55-.66a3.57,3.57,0,0,0-2.41-1.12,3.67,3.67,0,0,0-2.59.76,3,3,0,0,0-1.24,2.17,2.9,2.9,0,0,0,.84,2.34,3.49,3.49,0,0,0,2.4,1.12A7.17,7.17,0,0,1,89.53,102,5.79,5.79,0,0,1,91.2,106c0,.2,0,.41,0,.61A6,6,0,0,1,88.7,111a7.27,7.27,0,0,1-4.54,1.54,7.52,7.52,0,0,1-5.47-2.27A7,7,0,0,1,78.13,109.59Z"/><path class="cls-2" d="M105.81,111.86,97.44,96.73v14.72a1,1,0,0,1-.34.75,1.25,1.25,0,0,1-1.67,0,1,1,0,0,1-.35-.75V92.2a1,1,0,0,1,.35-.75,1.2,1.2,0,0,1,.83-.32,1.12,1.12,0,0,1,1,.57l9.6,17.36L116.5,91.7a1.14,1.14,0,0,1,1-.57,1.22,1.22,0,0,1,.84.32,1,1,0,0,1,.34.75v19.25a1,1,0,0,1-.34.75,1.22,1.22,0,0,1-.84.32,1.18,1.18,0,0,1-.83-.32,1,1,0,0,1-.35-.75V96.73L107.93,112a1.11,1.11,0,0,1-1,.52A1.17,1.17,0,0,1,105.81,111.86Z"/><path class="cls-2" d="M127.07,105l-2.94,6.83a1.19,1.19,0,0,1-.25.35,1.28,1.28,0,0,1-.84.31,1.2,1.2,0,0,1-.84-.32,1,1,0,0,1-.35-.75A1,1,0,0,1,122,111l8.22-19.11a1.15,1.15,0,0,1,.31-.44,1.22,1.22,0,0,1,.83-.31,1.28,1.28,0,0,1,.84.31,1.09,1.09,0,0,1,.29.44L140.67,111a1,1,0,0,1,.11.46,1,1,0,0,1-.35.75,1.25,1.25,0,0,1-1.66,0,1.1,1.1,0,0,1-.27-.35L135.56,105Zm7.57-2.14-3.32-7.73L128,102.89Z"/><path class="cls-2" d="M145.08,91.13H151A7.24,7.24,0,0,1,156,93a6,6,0,0,1,0,9.07,6.9,6.9,0,0,1-2.08,1.32l5.14,7.46a1,1,0,0,1,.2.59,1,1,0,0,1-.35.75,1.2,1.2,0,0,1-.84.32,1.23,1.23,0,0,1-1-.55l-5.55-8h-5.24v7.49a1,1,0,0,1-.35.75,1.25,1.25,0,0,1-1.67,0,1,1,0,0,1-.35-.75V92.2a1,1,0,0,1,.35-.75A1.2,1.2,0,0,1,145.08,91.13Zm1.19,2.14v8.56H151a4.85,4.85,0,0,0,3.35-1.25,4,4,0,0,0,0-6.06A4.85,4.85,0,0,0,151,93.27Z"/><path class="cls-2" d="M162.82,93.27A1.19,1.19,0,0,1,162,93a1,1,0,0,1,0-1.51,1.2,1.2,0,0,1,.83-.32H178.2a1.2,1.2,0,0,1,.83.32A1,1,0,0,1,179,93a1.19,1.19,0,0,1-.83.31h-6.51v18.18a1,1,0,0,1-.34.75,1.22,1.22,0,0,1-.84.32,1.2,1.2,0,0,1-.83-.32,1,1,0,0,1-.35-.75V93.27Z"/><path class="cls-2" d="M190.85,109.59a1,1,0,0,1-.23-.64,1,1,0,0,1,.34-.76,1.21,1.21,0,0,1,.84-.31,1.2,1.2,0,0,1,1,.49,3,3,0,0,0,.41.49,4.74,4.74,0,0,0,3.22,1.51,5,5,0,0,0,3.45-1,4,4,0,0,0,1.65-2.91,3.85,3.85,0,0,0-1.1-3.12,4.74,4.74,0,0,0-3.23-1.49,6,6,0,0,1-4-1.87,4.85,4.85,0,0,1-1.39-3.9,5,5,0,0,1,2.07-3.64,6.27,6.27,0,0,1,8.34.62,5.45,5.45,0,0,1,.57.72,1,1,0,0,1-.17,1.33,1.19,1.19,0,0,1-.83.31,1,1,0,0,1-.83-.32l-.55-.66A3.57,3.57,0,0,0,198,93.31a3.65,3.65,0,0,0-2.58.76,3,3,0,0,0-1.25,2.17,2.94,2.94,0,0,0,.84,2.34,3.53,3.53,0,0,0,2.4,1.12,7.17,7.17,0,0,1,4.85,2.25,5.79,5.79,0,0,1,1.67,4.06c0,.2,0,.41,0,.61a6,6,0,0,1-2.47,4.36,7.26,7.26,0,0,1-4.53,1.54,7.5,7.5,0,0,1-5.47-2.27A5.86,5.86,0,0,1,190.85,109.59Z"/><path class="cls-2" d="M207.8,92.2a1,1,0,0,1,.35-.75,1.25,1.25,0,0,1,1.67,0,1,1,0,0,1,.35.75v8.56H222V92.2a1,1,0,0,1,.35-.75,1.25,1.25,0,0,1,1.67,0,1,1,0,0,1,.35.75v19.25a1,1,0,0,1-.35.75,1.25,1.25,0,0,1-1.67,0,1,1,0,0,1-.35-.75v-8.56H210.17v8.56a1,1,0,0,1-.35.75,1.25,1.25,0,0,1-1.67,0,1,1,0,0,1-.35-.75Z"/><path class="cls-2" d="M232.7,105l-2.94,6.83a1.4,1.4,0,0,1-.25.35,1.29,1.29,0,0,1-.85.31,1.2,1.2,0,0,1-.83-.32,1,1,0,0,1-.35-.75,1,1,0,0,1,.1-.46l8.22-19.11a1.27,1.27,0,0,1,.31-.44,1.22,1.22,0,0,1,2,.44L246.3,111a1,1,0,0,1,.1.46,1,1,0,0,1-.34.75,1.22,1.22,0,0,1-.84.32,1.24,1.24,0,0,1-.83-.31,1.06,1.06,0,0,1-.26-.35L241.18,105Zm7.57-2.14-3.33-7.73-3.32,7.73Z"/><path class="cls-2" d="M250.71,91.13h4.73a7.8,7.8,0,0,1,5.43,2,6.47,6.47,0,0,1,0,9.83,7.84,7.84,0,0,1-5.43,2h-3.55v6.42a1,1,0,0,1-.35.75,1.25,1.25,0,0,1-1.67,0,1,1,0,0,1-.34-.75V92.2a1,1,0,0,1,.34-.75A1.2,1.2,0,0,1,250.71,91.13Zm1.18,2.14v9.62h3.55a5.41,5.41,0,0,0,3.76-1.41,4.49,4.49,0,0,0,0-6.8,5.41,5.41,0,0,0-3.76-1.41Z"/><path class="cls-2" d="M267.43,91.13h14.19a1.2,1.2,0,0,1,.84.32,1,1,0,0,1,0,1.51,1.2,1.2,0,0,1-.84.31h-13v7.49h9.47a1.19,1.19,0,0,1,.83.31,1,1,0,0,1,0,1.51,1.19,1.19,0,0,1-.83.31h-9.47v7.49h13a1.2,1.2,0,0,1,.84.31,1,1,0,0,1,0,1.51,1.2,1.2,0,0,1-.84.32H267.43a1.2,1.2,0,0,1-.83-.32,1,1,0,0,1-.35-.75V92.2a1,1,0,0,1,.35-.75A1.2,1.2,0,0,1,267.43,91.13Z"/><path class="cls-2" d="M292.6,91.13A12,12,0,0,1,301,94.27a10,10,0,0,1,0,15.11,12,12,0,0,1-8.36,3.14h-4.73a1.2,1.2,0,0,1-.84-.32,1,1,0,0,1-.35-.75V92.2a1,1,0,0,1,.35-.75,1.2,1.2,0,0,1,.84-.32Zm0,19.25a9.64,9.64,0,0,0,6.69-2.51,8,8,0,0,0,0-12.09,9.64,9.64,0,0,0-6.69-2.51h-3.55v17.11Z"/><path class="cls-3" d="M167.86,23.18c-11.18,0-21.57,8.5-21.92,22.49h0v.13h13c.36-5.55,4.77-10.19,10.28-10.19h.24c5.91,0,10.65,4.78,14.23,9.58L190.36,36C184.18,28.19,177.8,23.18,167.86,23.18Z"/><path class="cls-4" d="M236.35,45.8c-.18-13.74-10.42-22.27-21.81-22.39h-.48c-11.77,0-17.88,8.4-21.95,12.89l-8,11.4c-3.63,5-8.56,10.32-14.77,10.32h-.24c-5.53,0-10-4.66-10.29-10.24H145.91V48h0c.36,14,10.74,22.49,21.92,22.49,10.21,0,16.66-5.28,23-13.49l7.51-10.09c.39-.51.79-1,1.21-1.56,3.52-4.49,7.79-9.47,13.69-9.47s9.41,4.29,10,9.95h13.1"/><path class="cls-3" d="M236.37,47.78h-13.1c-.57,5.68-4.19,10-10,10s-10.16-5-13.69-9.48l-7.14,9.36c4.07,4.5,9.88,12.56,21.64,12.56h.49c11.41-.12,21.66-8.68,21.81-22.45"/></svg>