<?xml version="1.0" encoding="UTF-8" standalone="no"?>
<!-- Created with Inkscape (http://www.inkscape.org/) -->

<svg
   xmlns:dc="http://purl.org/dc/elements/1.1/"
   xmlns:cc="http://creativecommons.org/ns#"
   xmlns:rdf="http://www.w3.org/1999/02/22-rdf-syntax-ns#"
   xmlns:svg="http://www.w3.org/2000/svg"
   xmlns="http://www.w3.org/2000/svg"
   xmlns:sodipodi="http://sodipodi.sourceforge.net/DTD/sodipodi-0.dtd"
   xmlns:inkscape="http://www.inkscape.org/namespaces/inkscape"
   version="1.1"
   id="svg4518"
   xml:space="preserve"
   width="84.5mm"
   height="16.5mm"
   viewBox="0 0 302.47028 59.062254"
   sodipodi:docname="logo new.svg"
   inkscape:version="0.92.3 (2405546, 2018-03-11)"><metadata
     id="metadata4524"><rdf:RDF><cc:Work
         rdf:about=""><dc:format>image/svg+xml</dc:format><dc:type
           rdf:resource="http://purl.org/dc/dcmitype/StillImage" /><dc:title></dc:title></cc:Work></rdf:RDF></metadata><defs
     id="defs4522"><clipPath
       clipPathUnits="userSpaceOnUse"
       id="clipPath4538"><path
         d="M 0,283.465 H 283.465 V 0 H 0 Z"
         id="path4536"
         inkscape:connector-curvature="0" /></clipPath></defs><sodipodi:namedview
     pagecolor="#ffffff"
     bordercolor="#666666"
     borderopacity="1"
     objecttolerance="10"
     gridtolerance="10"
     guidetolerance="10"
     inkscape:pageopacity="0"
     inkscape:pageshadow="2"
     inkscape:window-width="3840"
     inkscape:window-height="2080"
     id="namedview4520"
     showgrid="false"
     inkscape:zoom="6.76198"
     inkscape:cx="171.92252"
     inkscape:cy="42.353968"
     inkscape:window-x="3829"
     inkscape:window-y="-11"
     inkscape:window-maximized="1"
     inkscape:current-layer="g4526"
     inkscape:document-units="mm"
     units="mm"
     inkscape:pagecheckerboard="false"
     scale-x="3.57953" /><g
     id="g4526"
     inkscape:groupmode="layer"
     inkscape:label="logo new"
     transform="matrix(1.3333333,0,0,-1.3333333,0,79.06131)"><g
       id="g870"
       transform="translate(-8.6137002,-13.867587)"><g
         transform="translate(14.487821,48.942084)"
         id="g4528"><path
           inkscape:connector-curvature="0"
           id="path4530"
           style="fill:#75787b;fill-opacity:1;fill-rule:nonzero;stroke:none"
           d="M 0,0 V -5.484 H 9.485 V -9.589 H 0 v -9.944 H -5.952 V 4.361 H 10.185 V 0 Z" /></g><g
         transform="translate(-19.810779,-90.896516)"
         id="g4532"><g
           clip-path="url(#clipPath4538)"
           id="g4534"><g
             transform="translate(56.8367,128.2937)"
             id="g4540"><path
               inkscape:connector-curvature="0"
               id="path4542"
               style="fill:#75787b;fill-opacity:1;fill-rule:nonzero;stroke:none"
               d="m 0,0 h -1.847 c -2.514,0 -3.597,-0.287 -3.597,-2.355 v -0.732 c 0,-1.433 0.86,-1.847 2.069,-1.847 1.433,0 2.833,0.541 3.375,0.859 z m 0.286,-7.988 v 1.176 c -1.178,-0.795 -3.278,-1.654 -5.698,-1.654 -3.438,0 -5.315,1.749 -5.315,5.188 v 0.731 c 0,4.838 3.692,5.33 8.849,5.33 h 1.687 V 3.77 c 0,2.228 -0.478,2.672 -3.343,2.672 -1.623,0 -3.819,-0.094 -5.856,-0.317 v 3.31 c 1.018,0.382 3.946,1.115 7.003,1.115 5.665,0 7.733,-1.848 7.733,-6.78 V -7.988 Z" /></g><path
             inkscape:connector-curvature="0"
             id="path4544"
             style="fill:#75787b;fill-opacity:1;fill-rule:nonzero;stroke:none"
             d="m 66.452,138.366 h 5.539 v -18.061 h -5.539 z m -0.095,6.343 h 5.762 v -3.861 h -5.762 z" /><g
             transform="translate(81.9861,133.3689)"
             id="g4546"><path
               inkscape:connector-curvature="0"
               id="path4548"
               style="fill:#75787b;fill-opacity:1;fill-rule:nonzero;stroke:none"
               d="m 0,0 v -13.063 h -5.538 v 18.06 h 5.155 V 3.5 C 1.4,5.124 3.628,5.475 5.602,5.475 V 0.827 C 3.597,0.827 1.433,0.477 0,0" /></g><g
             transform="translate(100.3225,119.7634)"
             id="g4550"><path
               inkscape:connector-curvature="0"
               id="path4552"
               style="fill:#2e4080;fill-opacity:1;fill-rule:nonzero;stroke:none"
               d="m 0,0 c -6.749,0 -10.631,2.401 -10.631,10.932 v 3.065 c 0,8.529 3.882,10.948 10.631,10.948 1.94,0 5.22,-0.35 6.397,-0.667 v -4.234 c -1.591,0.127 -3.883,0.286 -5.824,0.286 -3.502,0 -5.189,-1.178 -5.189,-6.333 v -3.065 c 0,-5.189 1.687,-6.317 5.22,-6.317 1.941,0 4.202,0.128 5.793,0.255 V 0.636 C 5.22,0.351 1.94,0 0,0" /></g><g
             transform="translate(120.6648,130.28)"
             id="g4554"><path
               inkscape:connector-curvature="0"
               id="path4556"
               style="fill:#2e4080;fill-opacity:1;fill-rule:nonzero;stroke:none"
               d="M 0,0 C 0,3.215 -0.955,4.329 -3.215,4.329 -5.442,4.329 -6.397,3.215 -6.397,0 v -1.923 c 0,-3.215 0.955,-4.328 3.182,-4.328 2.26,0 3.215,1.113 3.215,4.328 z m -3.215,-10.452 c -5.506,0 -8.689,2.577 -8.689,8.529 V 0 c 0,5.984 3.183,8.563 8.689,8.563 5.57,0 8.754,-2.579 8.754,-8.563 v -1.923 c 0,-5.952 -3.184,-8.529 -8.754,-8.529" /></g><g
             transform="translate(141.4539,120.3054)"
             id="g4558"><path
               inkscape:connector-curvature="0"
               id="path4560"
               style="fill:#2e4080;fill-opacity:1;fill-rule:nonzero;stroke:none"
               d="m 0,0 v 11.408 c 0,2.196 -0.415,2.959 -2.166,2.959 -1.018,0 -2.418,-0.414 -3.882,-1.018 V 0 h -5.538 v 18.061 h 5.219 v -1.464 c 1.847,1.145 3.884,1.941 5.952,1.941 5.475,0 5.952,-3.184 5.952,-7.13 V 0 Z" /></g><g
             transform="translate(162.8152,120.3054)"
             id="g4562"><path
               inkscape:connector-curvature="0"
               id="path4564"
               style="fill:#2e4080;fill-opacity:1;fill-rule:nonzero;stroke:none"
               d="m 0,0 v 11.408 c 0,2.196 -0.415,2.959 -2.166,2.959 -1.018,0 -2.419,-0.414 -3.883,-1.018 V 0 h -5.538 v 18.061 h 5.22 v -1.464 c 1.846,1.145 3.884,1.941 5.952,1.941 5.475,0 5.952,-3.184 5.952,-7.13 V 0 Z" /></g><g
             transform="translate(183.8884,131.0769)"
             id="g4566"><path
               inkscape:connector-curvature="0"
               id="path4568"
               style="fill:#2e4080;fill-opacity:1;fill-rule:nonzero;stroke:none"
               d="M 0,0 C 0,2.004 -0.413,3.819 -3.246,3.819 -5.984,3.819 -6.461,1.974 -6.461,0 V -0.255 H 0 Z m -6.493,-3.197 v -0.255 c 0,-2.387 0.318,-3.693 4.233,-3.693 1.847,0 3.757,0.128 6.812,0.352 v -3.661 c -1.402,-0.35 -3.947,-0.795 -7.066,-0.795 -6.652,0 -9.454,2.323 -9.454,8.975 v 0.905 c 0,6.334 3.025,9.136 8.754,9.136 6.811,0 8.656,-4.33 8.656,-9.549 v -1.415 z" /></g><g
             transform="translate(200.284,119.8279)"
             id="g4570"><path
               inkscape:connector-curvature="0"
               id="path4572"
               style="fill:#2e4080;fill-opacity:1;fill-rule:nonzero;stroke:none"
               d="m 0,0 c -5.57,0 -8.085,2.927 -8.085,8.529 v 1.955 c 0,5.73 2.515,8.532 8.085,8.532 2.896,0 5.028,-0.447 6.079,-0.702 v -3.788 c -2.418,0.16 -3.978,0.255 -5.028,0.255 -2.419,0 -3.63,-0.732 -3.63,-4.297 V 8.529 c 0,-3.565 1.242,-4.328 3.63,-4.328 1.05,0 2.61,0.096 5.028,0.255 V 0.699 C 5.028,0.445 2.896,0 0,0" /></g><g
             transform="translate(217.0281,119.8279)"
             id="g4574"><path
               inkscape:connector-curvature="0"
               id="path4576"
               style="fill:#2e4080;fill-opacity:1;fill-rule:nonzero;stroke:none"
               d="m 0,0 c -3.851,0 -5.537,1.526 -5.537,5.538 v 9.053 l -3.151,0.286 v 3.661 h 3.151 v 4.583 H 0 V 18.538 H 4.074 V 14.591 H 0 V 5.601 C 0,4.104 0.097,3.786 1.497,3.786 c 0.858,0 2.1,0.065 2.546,0.128 V 0.508 C 3.565,0.382 1.848,0 0,0" /></g><path
             inkscape:connector-curvature="0"
             id="path4578"
             style="fill:#437cbe;fill-opacity:1;fill-rule:nonzero;stroke:none"
             d="m 242.362,146.694 h -17.008 v 17.008 h 17.008 z" /><g
             transform="translate(224.5037,145.843)"
             id="g4580"><path
               inkscape:connector-curvature="0"
               id="path4582"
               style="fill:#6dabe0;fill-opacity:1;fill-rule:nonzero;stroke:none"
               d="M 0,0 V 6.803 H -3.401 V -3.401 H 6.804 V 0 Z" /></g><g
             transform="translate(243.2127,157.7487)"
             id="g4584"><path
               inkscape:connector-curvature="0"
               id="path4586"
               style="fill:#2e4080;fill-opacity:1;fill-rule:nonzero;stroke:none"
               d="m 0,0 v -11.906 h -8.504 v -8.503 H 11.905 V 0 Z" /></g></g></g></g></g></svg>